<?xml version="1.0" encoding="UTF-8" standalone="no"?>
<!-- Created with Inkscape (http://www.inkscape.org/) -->

<svg
   xmlns:dc="http://purl.org/dc/elements/1.1/"
   xmlns:cc="http://creativecommons.org/ns#"
   xmlns:rdf="http://www.w3.org/1999/02/22-rdf-syntax-ns#"
   xmlns:svg="http://www.w3.org/2000/svg"
   xmlns="http://www.w3.org/2000/svg"
   xmlns:sodipodi="http://sodipodi.sourceforge.net/DTD/sodipodi-0.dtd"
   xmlns:inkscape="http://www.inkscape.org/namespaces/inkscape"
   width="640"
   height="480"
   id="svg2"
   version="1.1"
   inkscape:version="0.48.5 r10040"
   sodipodi:docname="L-vee.svg">
  <defs
     id="defs4" />
  <sodipodi:namedview
     id="base"
     pagecolor="#ffffff"
     bordercolor="#666666"
     borderopacity="1.0"
     inkscape:pageopacity="0.0"
     inkscape:pageshadow="2"
     inkscape:zoom="1.4020833"
     inkscape:cx="317.20197"
     inkscape:cy="233.59462"
     inkscape:document-units="px"
     inkscape:current-layer="layer1"
     showgrid="false"
     inkscape:window-width="1440"
     inkscape:window-height="878"
     inkscape:window-x="0"
     inkscape:window-y="0"
     inkscape:window-maximized="1" />
  <metadata
     id="metadata7">
    <rdf:RDF>
      <cc:Work
         rdf:about="">
        <dc:format>image/svg+xml</dc:format>
        <dc:type
           rdf:resource="http://purl.org/dc/dcmitype/StillImage" />
        <dc:title></dc:title>
      </cc:Work>
    </rdf:RDF>
  </metadata>
  <g
     inkscape:label="Camada 1"
     inkscape:groupmode="layer"
     id="layer1"
     transform="translate(0,-572.36218)">
    <path
       style="fill:#0000ff;stroke:none"
       id="path2987"
       d="m 90.66733,676.84562 c 3.278313,0.0452 6.548347,-0.26257 9.8229,-0.4016 7.24351,-0.23721 14.49213,0.21969 21.71751,0.69606 8.79332,0.63482 17.51694,1.93433 26.22851,3.24849 9.58361,1.47081 19.18196,2.84297 28.77496,4.25066 9.70827,1.34564 19.37001,2.97442 29.03079,4.61891 10.07465,1.69081 20.18517,3.15466 30.2906,4.64653 9.59438,1.36493 19.12197,3.15434 28.62825,5.02644 9.14584,1.68694 18.22644,3.67947 27.21473,6.06478 9.36474,2.42642 18.61596,5.27234 27.8981,7.99422 9.11824,2.63386 18.16842,5.48636 27.12788,8.61688 8.17274,2.83574 16.11225,6.28267 24.17106,9.41787 8.92421,3.47702 17.90796,6.79665 26.77051,10.42961 8.92522,3.85825 17.79947,7.83948 26.57065,12.03685 8.62487,4.03555 16.84051,8.85582 24.93578,13.85044 7.85732,4.91824 15.67263,9.91579 23.27684,15.21876 6.79638,4.6795 13.42101,9.59083 19.85748,14.75265 5.37681,4.34696 10.64072,8.83217 15.88001,13.34332 5.32784,4.69488 10.62623,9.42416 15.80582,14.28243 5.39972,5.01318 10.20513,10.60811 15.10487,16.0976 4.43339,5.03821 8.95075,10.00028 13.44122,14.98718 3.68245,4.22771 6.929,8.80056 9.71959,13.65865 1.0876,1.92116 2.13385,3.86344 3.10162,5.84705 0,0 -2.07126,1.93008 -2.07126,1.93008 l 0,0 c -0.88454,-2.0249 -1.94887,-3.96093 -3.01534,-5.89531 -2.75577,-4.85844 -5.9933,-9.41817 -9.65587,-13.63957 -4.48121,-4.9961 -8.99661,-9.96108 -13.42528,-15.00431 -4.89233,-5.48546 -9.68825,-11.07883 -15.0858,-16.083 -5.17744,-4.85556 -10.4816,-9.57314 -15.81019,-14.26192 -5.23327,-4.51255 -10.49221,-8.99791 -15.8578,-13.35281 -6.42021,-5.16976 -13.03482,-10.08265 -19.81788,-14.76765 -7.59658,-5.30518 -15.41184,-10.29327 -23.26323,-15.21144 -8.08835,-4.98695 -16.29023,-9.81097 -24.90807,-13.83912 -8.7678,-4.19399 -17.63931,-8.17044 -26.56124,-12.0249 -8.86373,-3.63129 -17.84783,-6.95102 -26.77764,-10.41484 -8.05885,-3.13022 -16.00284,-6.56069 -24.1701,-9.40569 -8.94628,-3.14076 -17.98328,-6.00479 -27.09346,-8.63446 -9.28545,-2.71704 -18.54329,-5.54662 -27.9106,-7.97031 -8.98244,-2.38132 -18.05636,-4.37465 -27.19563,-6.06063 -9.49993,-1.87393 -19.02243,-3.65836 -28.61004,-5.02821 -10.10623,-1.5002 -20.21867,-2.96412 -30.29642,-4.64843 -9.65982,-1.642 -19.32196,-3.25939 -29.02749,-4.61365 -9.59727,-1.40868 -19.20014,-2.77969 -28.7906,-4.23432 -8.70809,-1.30634 -17.42718,-2.60785 -26.21728,-3.22744 -7.23822,-0.4639 -14.50115,-0.89803 -21.755528,-0.60595 -3.295816,0.15927 -6.586062,0.47225 -9.887105,0.45764 0,0 1.834173,-2.14754 1.834173,-2.14754 z"
       inkscape:connector-curvature="0" />
    <path
       inkscape:connector-curvature="0"
       d="m 66.417701,703.94815 c 3.278313,0.0452 6.548347,-0.26257 9.8229,-0.4016 7.24351,-0.23721 14.49213,0.21969 21.71751,0.69606 8.793319,0.63482 17.516939,1.93433 26.228509,3.24849 9.58361,1.47081 19.18196,2.84297 28.77496,4.25066 9.70827,1.34564 19.37001,2.97442 29.03079,4.61891 10.07465,1.69081 20.18517,3.15466 30.2906,4.64653 9.59438,1.36493 19.12197,3.15434 28.62825,5.02644 9.14584,1.68694 18.22644,3.67947 27.21473,6.06478 9.36474,2.42642 18.61596,5.27234 27.8981,7.99422 9.11824,2.63386 18.16842,5.48636 27.12788,8.61688 8.17274,2.83574 16.11225,6.28267 24.17106,9.41787 8.92421,3.47702 17.90796,6.79665 26.77051,10.42961 8.92522,3.85825 17.79947,7.83948 26.57065,12.03685 8.62487,4.03555 16.84051,8.85582 24.93578,13.85044 7.85732,4.91824 15.67263,9.91579 23.27684,15.21876 6.79638,4.6795 13.42101,9.59083 19.85748,14.75265 5.37681,4.34696 10.64072,8.83217 15.88001,13.34332 5.32784,4.69488 10.62623,9.42416 15.80582,14.28243 5.39972,5.01318 10.20513,10.60811 15.10487,16.0976 4.43339,5.03821 8.95075,10.00028 13.44122,14.98718 3.68245,4.22771 6.929,8.80056 9.71959,13.65865 1.0876,1.92116 2.13385,3.86344 3.10162,5.84705 0,0 -2.07126,1.93008 -2.07126,1.93008 l 0,0 c -0.88454,-2.0249 -1.94887,-3.96093 -3.01534,-5.89531 -2.75577,-4.85844 -5.9933,-9.41817 -9.65587,-13.63957 -4.48121,-4.9961 -8.99661,-9.96108 -13.42528,-15.00431 -4.89233,-5.48546 -9.68825,-11.07883 -15.0858,-16.083 -5.17744,-4.85556 -10.4816,-9.57314 -15.81019,-14.26192 -5.23327,-4.51255 -10.49221,-8.99791 -15.8578,-13.35281 -6.42021,-5.16976 -13.03482,-10.08265 -19.81788,-14.76765 -7.59658,-5.30518 -15.41184,-10.29327 -23.26323,-15.21144 -8.08835,-4.98695 -16.29023,-9.81097 -24.90807,-13.83912 -8.7678,-4.19399 -17.63931,-8.17044 -26.56124,-12.0249 -8.86373,-3.63129 -17.84783,-6.95102 -26.77764,-10.41484 -8.05885,-3.13022 -16.00284,-6.56069 -24.1701,-9.40569 -8.94628,-3.14076 -17.98328,-6.00479 -27.09346,-8.63446 -9.28545,-2.71704 -18.54329,-5.54662 -27.9106,-7.97031 -8.98244,-2.38132 -18.05636,-4.37465 -27.19563,-6.06063 -9.49993,-1.87393 -19.02243,-3.65836 -28.61004,-5.02821 -10.10623,-1.5002 -20.21867,-2.96412 -30.29642,-4.64843 -9.65982,-1.642 -19.32196,-3.25939 -29.02749,-4.61365 -9.59727,-1.40868 -19.20014,-2.77969 -28.7906,-4.23432 -8.70809,-1.30634 -17.42718,-2.60785 -26.217279,-3.22744 -7.23822,-0.4639 -14.50115,-0.89803 -21.755528,-0.60595 -3.295816,0.15927 -6.586062,0.47225 -9.887105,0.45764 0,0 1.834173,-2.14754 1.834173,-2.14754 z"
       id="path2991"
       style="fill:#0000ff;stroke:none" />
    <path
       style="fill:#0000ff;stroke:none"
       id="path2993"
       d="m 48.587092,732.47712 c 3.278313,0.0452 6.548347,-0.26257 9.8229,-0.4016 7.24351,-0.23721 14.49213,0.21969 21.71751,0.69606 8.793319,0.63482 17.516939,1.93433 26.228508,3.24849 9.58361,1.47081 19.18196,2.84297 28.77496,4.25066 9.70827,1.34564 19.37001,2.97442 29.03079,4.61891 10.07465,1.69081 20.18517,3.15466 30.2906,4.64653 9.59438,1.36493 19.12197,3.15434 28.62825,5.02644 9.14584,1.68694 18.22644,3.67947 27.21473,6.06478 9.36474,2.42642 18.61596,5.27234 27.8981,7.99422 9.11824,2.63386 18.16842,5.48636 27.12788,8.61688 8.17274,2.83574 16.11225,6.28267 24.17106,9.41787 8.92421,3.47702 17.90796,6.79665 26.77051,10.42961 8.92522,3.85825 17.79947,7.83948 26.57065,12.03685 8.62487,4.03555 16.84051,8.85582 24.93578,13.85044 7.85732,4.91824 15.67263,9.91579 23.27684,15.21876 6.79638,4.6795 13.42101,9.59083 19.85748,14.75265 5.37681,4.34696 10.64072,8.83217 15.88001,13.34332 5.32784,4.69488 10.62623,9.42416 15.80582,14.28243 5.39972,5.01318 10.20513,10.60811 15.10487,16.0976 4.43339,5.03821 8.95075,10.00028 13.44122,14.98718 3.68245,4.22771 6.929,8.80056 9.71959,13.65865 1.0876,1.92116 2.13385,3.86344 3.10162,5.84705 0,0 -2.07126,1.93008 -2.07126,1.93008 l 0,0 c -0.88454,-2.0249 -1.94887,-3.96093 -3.01534,-5.89531 -2.75577,-4.85844 -5.9933,-9.41817 -9.65587,-13.63957 -4.48121,-4.9961 -8.99661,-9.96108 -13.42528,-15.00431 -4.89233,-5.48546 -9.68825,-11.07883 -15.0858,-16.083 -5.17744,-4.85556 -10.4816,-9.57314 -15.81019,-14.26192 -5.23327,-4.51255 -10.49221,-8.99791 -15.8578,-13.35281 -6.42021,-5.16976 -13.03482,-10.08265 -19.81788,-14.76765 -7.59658,-5.30518 -15.41184,-10.29327 -23.26323,-15.21144 -8.08835,-4.98695 -16.29023,-9.81097 -24.90807,-13.83912 -8.7678,-4.19399 -17.63931,-8.17044 -26.56124,-12.0249 -8.86373,-3.63129 -17.84783,-6.95102 -26.77764,-10.41484 -8.05885,-3.13022 -16.00284,-6.56069 -24.1701,-9.40569 -8.94628,-3.14076 -17.98328,-6.00479 -27.09346,-8.63446 -9.28545,-2.71704 -18.54329,-5.54662 -27.9106,-7.97031 -8.98244,-2.38132 -18.05636,-4.37465 -27.19563,-6.06063 -9.49993,-1.87393 -19.02243,-3.65836 -28.61004,-5.02821 -10.10623,-1.5002 -20.21867,-2.96412 -30.29642,-4.64843 -9.65982,-1.642 -19.32196,-3.25939 -29.02749,-4.61365 -9.59727,-1.40868 -19.20014,-2.77969 -28.7906,-4.23432 -8.708089,-1.30634 -17.427179,-2.60785 -26.217278,-3.22744 -7.23822,-0.4639 -14.50115,-0.89803 -21.755528,-0.60595 -3.295816,0.15927 -6.586062,0.47225 -9.887105,0.45764 0,0 1.834173,-2.14754 1.834173,-2.14754 z"
       inkscape:connector-curvature="0" />
    <path
       inkscape:connector-curvature="0"
       d="m 32.896156,770.27801 c 3.278313,0.0452 6.548347,-0.26257 9.8229,-0.4016 7.24351,-0.23721 14.49213,0.21969 21.71751,0.69606 8.793319,0.63482 17.516939,1.93433 26.228508,3.24849 9.583606,1.47081 19.181956,2.84297 28.774956,4.25066 9.70827,1.34564 19.37001,2.97442 29.03079,4.61891 10.07465,1.69081 20.18517,3.15466 30.2906,4.64653 9.59438,1.36493 19.12197,3.15434 28.62825,5.02644 9.14584,1.68694 18.22644,3.67947 27.21473,6.06478 9.36474,2.42642 18.61596,5.27234 27.8981,7.99422 9.11824,2.63386 18.16842,5.48636 27.12788,8.61688 8.17274,2.83574 16.11225,6.28267 24.17106,9.41787 8.92421,3.47702 17.90796,6.79665 26.77051,10.42961 8.92522,3.85825 17.79947,7.83948 26.57065,12.03685 8.62487,4.03555 16.84051,8.85582 24.93578,13.85044 7.85732,4.91824 15.67263,9.91579 23.27684,15.21876 6.79638,4.6795 13.42101,9.59083 19.85748,14.75265 5.37681,4.34696 10.64072,8.83217 15.88001,13.34332 5.32784,4.69488 10.62623,9.42416 15.80582,14.28243 5.39972,5.01318 10.20513,10.60811 15.10487,16.0976 4.43339,5.03821 8.95075,10.00028 13.44122,14.98718 3.68245,4.22771 6.929,8.80056 9.71959,13.65865 1.0876,1.92116 2.13385,3.86344 3.10162,5.84705 0,0 -2.07126,1.93008 -2.07126,1.93008 l 0,0 c -0.88454,-2.0249 -1.94887,-3.96093 -3.01534,-5.89531 -2.75577,-4.85844 -5.9933,-9.41817 -9.65587,-13.63957 -4.48121,-4.9961 -8.99661,-9.96108 -13.42528,-15.00431 -4.89233,-5.48546 -9.68825,-11.07883 -15.0858,-16.083 -5.17744,-4.85556 -10.4816,-9.57314 -15.81019,-14.26192 -5.23327,-4.51255 -10.49221,-8.99791 -15.8578,-13.35281 -6.42021,-5.16976 -13.03482,-10.08265 -19.81788,-14.76765 -7.59658,-5.30518 -15.41184,-10.29327 -23.26323,-15.21144 -8.08835,-4.98695 -16.29023,-9.81097 -24.90807,-13.83912 -8.7678,-4.19399 -17.63931,-8.17044 -26.56124,-12.0249 -8.86373,-3.63129 -17.84783,-6.95102 -26.77764,-10.41484 -8.05885,-3.13022 -16.00284,-6.56069 -24.1701,-9.40569 -8.94628,-3.14076 -17.98328,-6.00479 -27.09346,-8.63446 -9.28545,-2.71704 -18.54329,-5.54662 -27.9106,-7.97031 -8.98244,-2.38132 -18.05636,-4.37465 -27.19563,-6.06063 -9.49993,-1.87393 -19.02243,-3.65836 -28.61004,-5.02821 -10.10623,-1.5002 -20.21867,-2.96412 -30.29642,-4.64843 -9.65982,-1.642 -19.32196,-3.25939 -29.02749,-4.61365 -9.59727,-1.40868 -19.200136,-2.77969 -28.790596,-4.23432 -8.708089,-1.30634 -17.427179,-2.60785 -26.217278,-3.22744 -7.23822,-0.4639 -14.50115,-0.89803 -21.755528,-0.60595 -3.295816,0.15927 -6.586062,0.47225 -9.887105,0.45764 0,0 1.834173,-2.14754 1.834173,-2.14754 z"
       id="path2995"
       style="fill:#0000ff;stroke:none" />
    <path
       style="fill:#0000ff;stroke:none"
       id="path2997"
       d="m 22.19779,810.21857 c 3.278313,0.0452 6.548347,-0.26257 9.8229,-0.4016 7.24351,-0.23721 14.49213,0.21969 21.71751,0.69606 8.793319,0.63482 17.516939,1.93433 26.228508,3.24849 9.583606,1.47081 19.181956,2.84297 28.774952,4.25066 9.70827,1.34564 19.37001,2.97442 29.03079,4.61891 10.07465,1.69081 20.18517,3.15466 30.2906,4.64653 9.59438,1.36493 19.12197,3.15434 28.62825,5.02644 9.14584,1.68694 18.22644,3.67947 27.21473,6.06478 9.36474,2.42642 18.61596,5.27234 27.8981,7.99422 9.11824,2.63386 18.16842,5.48636 27.12788,8.61688 8.17274,2.83574 16.11225,6.28267 24.17106,9.41787 8.92421,3.47702 17.90796,6.79665 26.77051,10.42961 8.92522,3.85825 17.79947,7.83948 26.57065,12.03685 8.62487,4.03555 16.84051,8.85582 24.93578,13.85044 7.85732,4.91824 15.67263,9.91579 23.27684,15.21876 6.79638,4.6795 13.42101,9.59083 19.85748,14.75265 5.37681,4.34696 10.64072,8.83217 15.88001,13.34332 5.32784,4.69488 10.62623,9.42416 15.80582,14.28243 5.39972,5.01318 10.20513,10.60811 15.10487,16.0976 4.43339,5.03821 8.95075,10.00028 13.44122,14.98718 3.68245,4.22771 6.929,8.80056 9.71959,13.65865 1.0876,1.9212 2.13385,3.8634 3.10162,5.8471 0,0 -2.07126,1.93 -2.07126,1.93 l 0,0 c -0.88454,-2.0249 -1.94887,-3.9609 -3.01534,-5.8953 -2.75577,-4.8584 -5.9933,-9.41815 -9.65587,-13.63955 -4.48121,-4.9961 -8.99661,-9.96108 -13.42528,-15.00431 -4.89233,-5.48546 -9.68825,-11.07883 -15.0858,-16.083 -5.17744,-4.85556 -10.4816,-9.57314 -15.81019,-14.26192 -5.23327,-4.51255 -10.49221,-8.99791 -15.8578,-13.35281 -6.42021,-5.16976 -13.03482,-10.08265 -19.81788,-14.76765 -7.59658,-5.30518 -15.41184,-10.29327 -23.26323,-15.21144 -8.08835,-4.98695 -16.29023,-9.81097 -24.90807,-13.83912 -8.7678,-4.19399 -17.63931,-8.17044 -26.56124,-12.0249 -8.86373,-3.63129 -17.84783,-6.95102 -26.77764,-10.41484 -8.05885,-3.13022 -16.00284,-6.56069 -24.1701,-9.40569 -8.94628,-3.14076 -17.98328,-6.00479 -27.09346,-8.63446 -9.28545,-2.71704 -18.54329,-5.54662 -27.9106,-7.97031 -8.98244,-2.38132 -18.05636,-4.37465 -27.19563,-6.06063 -9.49993,-1.87393 -19.02243,-3.65836 -28.61004,-5.02821 -10.10623,-1.5002 -20.21867,-2.96412 -30.29642,-4.64843 -9.65982,-1.642 -19.32196,-3.25939 -29.02749,-4.61365 -9.597266,-1.40868 -19.200132,-2.77969 -28.790592,-4.23432 -8.708089,-1.30634 -17.427179,-2.60785 -26.217278,-3.22744 -7.23822,-0.4639 -14.50115,-0.89803 -21.755528,-0.60595 -3.295816,0.15927 -6.586062,0.47225 -9.887105,0.45764 0,0 1.834173,-2.14754 1.834173,-2.14754 z"
       inkscape:connector-curvature="0" />
    <path
       style="fill:#800000;stroke:none"
       id="path2999"
       d="m 583.28187,280.64866 c 0.63194,1.49207 1.22475,3.0046 1.65806,4.56716 0.14866,0.84497 0.34667,1.66029 0.57889,2.48635 0.31341,0.82191 0.28034,1.56792 0.0816,2.40579 -0.19695,0.70127 -0.29548,1.42127 -0.35486,2.1454 -0.0351,0.61922 0.0151,1.21955 -0.20812,1.8062 -0.25678,0.50093 -0.4112,1.01934 -0.48451,1.57536 -0.28913,0.78179 -0.46911,1.5931 -0.70498,2.3914 -0.28972,0.98195 -0.69034,1.92138 -1.17421,2.82275 -0.55396,0.85573 -0.8981,1.82475 -1.24368,2.77843 -0.42542,1.13163 -1.04652,2.16256 -1.74007,3.1471 -0.8868,1.21931 -1.57674,2.5613 -2.36868,3.83927 -0.59483,1.05417 -1.18343,2.10093 -1.87828,3.09353 -0.68393,0.8279 -1.29969,1.70401 -1.95048,2.55879 -1.31097,1.71938 -2.86578,3.19177 -4.39926,4.71441 -1.07476,1.02439 -2.36471,1.7644 -3.44566,2.77924 0.46651,-0.46143 1.87173,-1.83986 1.39953,-1.38427 -0.85568,0.82559 -1.69173,1.67139 -2.55,2.49428 -0.19276,0.18481 -0.78541,0.72256 -0.60238,0.52812 0.45956,-0.4882 1.91082,-1.88181 1.43346,-1.41101 -2.64014,2.60387 -1.63638,1.68654 -3.04676,2.95428 -0.19135,0.1729 -0.38346,0.34497 -0.57405,0.51871 -2.20635,2.01114 2.30153,-2.28603 0.27895,-0.27521 -0.83985,0.83495 -1.69679,1.65286 -2.52502,2.49934 -0.47574,0.48623 0.97822,-0.94556 1.46733,-1.41835 -1.57513,1.38817 -2.9662,3.06117 -4.66109,4.32106 -0.36,0.4247 -0.86047,0.68531 -1.27009,1.05242 -0.14861,0.13318 -0.56169,0.56704 -0.41796,0.42861 1.48851,-1.43363 2.06892,-2.09561 1.02951,-0.94858 -0.8194,1.06211 -1.6961,2.0767 -2.53292,3.12474 -0.57293,0.72414 -1.15234,1.45769 -1.58754,2.27462 -0.60724,0.95158 -1.10807,1.94872 -1.57274,2.97509 -0.44922,1.04797 -0.97634,2.06205 -1.39976,3.12095 -0.4389,0.8191 -0.7574,1.68809 -1.14755,2.52959 -0.50307,0.93546 -0.85845,1.94347 -1.39647,2.85859 -0.69873,1.0222 -1.30297,2.1027 -1.96935,3.1453 -0.41101,0.80872 -0.91812,1.57251 -1.24213,2.42167 -0.34488,1.12575 -0.57987,2.28366 -0.92454,3.40829 -0.29502,0.74428 -0.60586,1.47289 -0.75447,2.26249 -0.11693,0.69601 0.21771,1.3618 0.39286,2.02519 0.0206,0.64481 0.33587,1.12797 0.61284,1.68055 0.38158,0.3925 0.82227,0.77197 1.31504,1.01654 0.4461,0.3751 0.92079,0.70982 1.3219,1.13289 0.45431,0.25709 0.78503,0.61516 1.06582,1.04991 0.57035,0.96937 0.0823,0.43767 -2.08953,1.91055 -0.05,0.0339 -0.0656,-0.10474 -0.11406,-0.14079 -0.0697,-0.0518 -0.27418,-0.087 -0.34812,-0.10343 -0.53512,-0.16141 -1.02887,-0.43008 -1.58659,-0.55605 -0.58272,-0.13183 -1.17999,-0.14529 -1.77445,-0.15544 -0.72187,-0.086 -1.35579,0.24497 -2.02851,0.45602 -0.58027,0.41128 -1.20561,0.73648 -1.82377,1.08221 -0.95368,0.61482 -3.7132,3.27438 -0.31013,-0.0466 -7.66713,7.63857 -0.0308,0.011 -0.78327,0.81962 -7.45039,8.00683 1.77365,-2.28808 -1.47849,1.68012 -0.79057,1.11203 -1.50876,2.26162 -2.10375,3.4898 -0.86651,1.79517 -1.76378,3.57572 -2.61535,5.37802 -0.7822,1.86358 -2.04931,3.42371 -3.25258,5.02036 -1.16622,1.42323 -1.97285,3.07714 -2.73745,4.73771 -0.70681,1.52242 -1.44762,3.0285 -2.16587,4.54547 -0.60846,1.73834 -1.34105,3.43125 -2.15237,5.08396 -0.8202,1.5901 -1.56928,3.20908 -2.25525,4.86133 -0.66466,1.50026 -1.27527,3.02214 -1.91295,4.53443 -0.65274,1.70881 -1.38479,3.37378 -2.21154,5.00441 -0.5595,1.18827 -1.14386,2.36077 -1.66273,3.56863 -0.64599,1.33389 -1.23989,2.6869 -1.81208,4.05328 -0.5888,1.22359 -1.18424,2.43989 -1.71733,3.69039 -0.47827,1.28312 -1.20686,2.45746 -1.96713,3.59026 -0.8664,1.28407 -1.60069,2.64922 -2.45113,3.94305 -0.62896,0.78047 -1.00508,1.70418 -1.46246,2.584 -0.43389,0.91692 -0.85027,1.84259 -1.29011,2.75761 -0.56605,1.07178 -1.36945,1.98868 -2.18229,2.87798 -0.74856,0.93554 -1.44795,1.90721 -2.21902,2.82503 -1.40554,1.43369 -2.86542,2.79959 -4.41298,4.07153 -0.84735,0.67788 -1.73193,1.30742 -2.60731,1.95342 -0.87448,0.61883 -1.8542,0.76977 -2.89448,0.8491 -1.00434,0.0625 -2.01146,0.0505 -3.01722,0.0478 -0.62856,-0.003 -1.25712,-0.006 -1.88569,-0.007 -0.70873,-0.21964 -1.26105,-0.72305 -1.91207,-1.06341 -0.37357,-0.4442 -1.04539,-0.58772 -1.39617,-1.03854 -0.1211,-1.2698 1.7101,-2.18302 2.37457,-2.85994 0,0 -1.66489,2.28737 -1.66489,2.28737 l 0,0 c 2.82457,-2.92199 1.9656,-2.01789 1.35029,-1.39417 0.38346,0.32514 0.88317,0.59737 1.28063,0.94201 0.60353,0.32656 1.13348,0.81985 1.81377,0.96678 0.62662,0.004 1.25319,0.0115 1.87982,0.0142 0.99783,0.006 1.99725,0.0133 2.99309,-0.0599 1.01216,-0.1022 1.94662,-0.3133 2.774,-0.9456 0.87485,-0.64226 1.75803,-1.27648 2.59549,-1.96633 0.85233,-0.72191 3.89798,-3.47014 0.45693,-0.11858 0.78456,-0.90817 1.50266,-1.86752 2.21263,-2.83466 0.81759,-0.87338 1.62607,-1.77175 2.23033,-2.81058 0.45022,-0.91038 0.85848,-1.84162 1.28324,-2.75805 0.44357,-0.89468 0.8338,-1.82281 1.45238,-2.61903 0.87344,-1.28128 1.59669,-2.65395 2.45201,-3.94708 0.77304,-1.11112 1.50919,-2.27746 1.99917,-3.54274 0.51754,-1.25931 1.10345,-2.4809 1.71882,-3.69344 0.5852,-1.35864 1.13239,-2.73092 1.80868,-4.04938 0.50318,-1.22149 1.09837,-2.39293 1.65517,-3.58749 0.82013,-1.632 1.60815,-3.26978 2.22867,-4.99207 0.62601,-1.51554 1.24937,-3.03104 1.91069,-4.53048 0.67453,-1.66376 1.42683,-3.28765 2.24988,-4.88302 0.82713,-1.63856 1.57447,-3.32853 2.14893,-5.07274 0.7056,-1.52382 1.46631,-3.02163 2.17154,-4.54578 0.7501,-1.67381 1.54257,-3.35141 2.70242,-4.78706 1.18613,-1.60104 2.5072,-3.11848 3.29139,-4.97808 0.83792,-1.80556 1.74524,-3.5784 2.60712,-5.3726 0.57335,-1.24869 1.28926,-2.39504 2.05072,-3.53583 0.96574,-1.18778 1.9472,-2.09795 3.0499,-3.27875 0.50952,-0.54561 -2.08626,2.1361 -1.57594,1.59125 0.93047,-0.99346 4.40132,-4.48846 0.77687,-0.82862 1.39145,-1.39833 2.67837,-2.78295 4.31552,-3.86999 0.61306,-0.36892 1.24631,-0.70366 1.87385,-1.04539 0.69227,-0.22115 1.35798,-0.49409 2.10203,-0.3983 0.61119,0.0173 1.22385,0.046 1.81954,0.19761 0.55294,0.14529 1.05146,0.41081 1.59923,0.55932 1.95551,0.67276 -0.94761,3.497 -1.411,2.40762 -0.26052,-0.43331 -0.58929,-0.75004 -1.02306,-1.01307 -0.37633,-0.40156 -0.83056,-0.71788 -1.25321,-1.06846 -0.53508,-0.294 -1.02678,-0.69645 -1.44301,-1.14175 -0.27528,-0.5712 -0.64959,-1.05916 -0.64922,-1.72633 -0.17428,-0.69777 -0.52699,-1.3924 -0.47185,-2.11536 0.12774,-0.80853 0.38694,-1.56218 0.73846,-2.30252 0.38701,-1.10796 0.58736,-2.28224 0.91683,-3.4076 0.27479,-0.88845 0.81639,-1.63618 1.2031,-2.47839 0.6795,-1.03604 1.26959,-2.12477 1.974,-3.14465 0.59479,-0.87903 0.88752,-1.90518 1.41433,-2.8248 0.38237,-0.84484 0.69441,-1.7089 1.15713,-2.51701 0.41176,-1.0708 0.94554,-2.08585 1.39768,-3.13927 0.47152,-1.01908 0.89846,-2.05627 1.56074,-2.97346 0.37724,-0.85983 0.98772,-1.58855 1.55651,-2.32976 0.83675,-1.05359 1.72577,-2.05957 2.52639,-3.14113 1.4334,-1.60239 2.93772,-3.12996 4.6189,-4.46728 0.41083,-0.33768 0.79008,-0.70384 1.19297,-1.05047 0.15599,-0.1342 0.60698,-0.55291 0.47297,-0.39674 -0.68339,0.79636 -2.27996,2.35389 -0.96467,1.06065 0.82091,-0.84142 1.64863,-1.67624 2.46271,-2.52426 0.4642,-0.48355 -0.9459,0.95003 -1.41299,1.43078 -0.17734,0.18253 0.36474,-0.35504 0.54366,-0.53601 1.2185,-1.23248 2.38437,-2.50392 3.69724,-3.63398 0.18139,-0.16526 0.71035,-0.67634 0.54417,-0.49578 -0.46472,0.50495 -1.93254,1.94929 -1.44107,1.47032 0.84811,-0.82655 1.66503,-1.68468 2.51119,-2.51323 2.96264,-2.901 -6.70379,6.94586 1.74988,-1.64081 1.11252,-0.97703 2.38554,-1.7499 3.44617,-2.79012 -3.4082,3.47233 -0.18778,0.19126 0.47332,-0.74019 0.6241,-0.87145 1.2706,-1.72913 1.95384,-2.54982 0.6812,-1.00358 1.34638,-2.0028 1.89153,-3.09135 0.82852,-1.25526 1.47121,-2.62871 2.35756,-3.8504 0.70817,-0.96102 1.33275,-1.97281 1.78318,-3.08051 0.34079,-0.9603 0.662,-1.95378 1.21227,-2.81487 0.51871,-0.87253 0.91428,-1.80978 1.20743,-2.77933 0.28561,-0.76731 0.32467,-1.61109 0.73453,-2.34057 0.0585,-0.57314 0.14278,-1.12858 0.43686,-1.63568 0.2504,-0.57406 0.28423,-1.10305 0.26257,-1.73792 0.0566,-0.73494 0.12711,-1.47228 0.33132,-2.18373 0.19852,-0.81115 0.34363,-1.48713 0.0134,-2.29823 -0.22708,-0.83092 -0.47293,-1.63291 -0.57695,-2.49128 -0.40394,-1.55843 -0.97663,-3.06878 -1.62795,-4.54006 0,0 2.06969,-1.91788 2.06969,-1.91788 z"
       inkscape:connector-curvature="0"
       transform="translate(0,572.36218)" />
    <text
       xml:space="preserve"
       style="font-size:40px;font-style:normal;font-weight:normal;line-height:125%;letter-spacing:0px;word-spacing:0px;fill:#000000;fill-opacity:1;stroke:none;font-family:Sans"
       x="138.36552"
       y="397.97919"
       id="text3007"
       sodipodi:linespacing="125%"
       transform="translate(0,572.36218)"><tspan
         sodipodi:role="line"
         id="tspan3009"></tspan></text>
    <text
       xml:space="preserve"
       style="font-size:40px;font-style:normal;font-variant:normal;font-weight:normal;font-stretch:normal;text-align:start;line-height:125%;letter-spacing:0px;word-spacing:0px;writing-mode:lr-tb;text-anchor:start;fill:#000000;fill-opacity:1;stroke:none;font-family:Sans;-inkscape-font-specification:Sans"
       x="544.09827"
       y="964.06244"
       id="text3011"
       sodipodi:linespacing="125%"><tspan
         sodipodi:role="line"
         id="tspan3015"
         x="544.09827"
         y="964.06244">Λ</tspan></text>
    <text
       xml:space="preserve"
       style="font-size:40px;font-style:normal;font-weight:normal;line-height:125%;letter-spacing:0px;word-spacing:0px;fill:#000000;fill-opacity:1;stroke:none;font-family:Sans"
       x="468.58841"
       y="775.6311"
       id="text3017"
       sodipodi:linespacing="125%"><tspan
         sodipodi:role="line"
         id="tspan3019"
         x="468.58841"
         y="775.6311">gL</tspan></text>
    <path
       style="fill:#ff0000;stroke:none"
       id="path3025"
       d="m 394.27928,607.04595 c -1.95217,0.64868 -3.82206,1.49148 -5.57331,2.56942 -1.44838,0.80425 -2.83478,1.71351 -4.38694,2.30813 -1.24286,0.64187 -2.42055,1.38706 -3.59207,2.15116 -1.3755,1.1062 -2.86926,2.04382 -4.32142,3.04362 -1.72789,1.30757 -3.47205,2.59073 -5.13433,3.98241 -1.55987,1.03893 -2.74221,2.51329 -4.16558,3.71304 -1.4986,1.10809 -2.87035,2.34572 -4.20048,3.65112 0.41335,-0.41947 -1.74849,1.7475 -1.31134,1.31066 2.06202,-2.06056 4.12256,-4.1226 6.18478,-6.18295 0.23014,-0.22994 -0.45693,0.46323 -0.68855,0.69168 -7.82144,7.71469 -4.93057,5.23487 -8.48204,8.23744 -1.55579,1.16124 -3.19584,2.23281 -4.67018,3.49507 -1.38751,1.25339 -2.82526,2.45543 -4.41346,3.44664 -1.71937,1.10373 -3.38555,2.3191 -4.7731,3.82526 14.16418,-14.21139 0.57171,-0.24636 -4.26303,4.21751 -1.79813,1.60054 -3.65433,3.16619 -5.35007,4.87909 -0.32234,0.29661 -0.64454,0.59337 -0.96702,0.88982 -0.7357,0.6763 -1.15836,1.06118 -1.88684,1.73868 -0.29576,0.27506 -1.17012,1.11374 -0.88481,0.82784 7.0897,-7.10442 7.79604,-7.89015 5.18263,-5.07279 -4.00324,3.8859 -7.80493,7.99681 -12.07501,11.59526 1.14848,-1.49042 -3.95028,3.72608 -2.5276,2.3354 10.45248,-10.2174 7.03055,-7.26376 4.81965,-4.38939 -3.4737,4.27252 -7.43473,8.15671 -11.49851,11.86335 -1.66821,1.61608 -3.47177,3.06926 -5.25374,4.55433 -3.16074,3.17846 1.60475,-1.61648 5.11437,-5.084 0.31205,-0.3083 -0.61463,0.6262 -0.91316,0.94761 -0.92908,1.00031 -1.79226,2.05984 -2.673,3.1022 -1.84556,2.16765 -3.67701,4.35159 -5.39336,6.62354 -1.9775,2.54105 -3.66656,5.28251 -5.52763,7.90608 -1.71055,2.54003 -3.66572,4.9003 -5.59579,7.27328 -1.82404,2.29928 -3.62966,4.61409 -5.41228,6.94583 -1.40539,1.90832 -3.00428,3.65629 -4.56744,5.43278 -1.73298,1.84646 -3.36788,3.77348 -4.90104,5.78818 -1.45744,2.0383 -2.95734,4.0515 -4.33463,6.14541 -1.29203,2.00424 -2.57578,4.00876 -3.75824,6.08018 -1.67301,2.98167 -3.26918,6.00488 -4.9448,8.98497 -1.61904,3.05207 -3.36085,6.04091 -4.86119,9.15411 -1.24212,2.85449 -2.47673,5.71107 -3.7871,8.53514 -1.31517,2.95064 -2.63537,5.89497 -4.161,8.74381 -1.17617,2.18069 -2.56672,4.2339 -3.9142,6.31009 -1.24023,2.04842 -2.23947,4.22883 -3.3674,6.33934 -1.34323,2.50981 -2.67194,5.02597 -4.10958,7.48341 -1.35076,2.18183 -2.82141,4.28595 -4.26219,6.4085 -1.68241,2.50324 -3.29323,5.05113 -4.91313,7.5947 -1.79199,2.85085 -3.6857,5.63556 -5.46122,8.49669 -1.57388,2.67476 -3.09483,5.38393 -4.55733,8.12141 -1.16437,2.35671 -2.33538,4.70678 -3.70543,6.95189 -1.17641,1.96951 -2.6023,3.76609 -3.9508,5.61603 -1.23352,1.69117 -2.20083,3.55304 -3.32094,5.31801 -1.26803,1.96151 -2.61318,3.87061 -3.94655,5.78755 -1.17076,1.80647 -2.33098,3.61734 -3.42346,5.47231 -1.23281,2.09001 -2.47252,4.17511 -3.6441,6.30018 -1.11395,2.01522 -2.43275,3.90139 -3.75751,5.78059 -1.48004,1.95012 -2.67969,4.07774 -3.84919,6.22165 -1.05636,2.03673 -1.89354,4.1718 -2.90385,6.23068 -0.89314,2.00186 -2.09043,3.83707 -3.28877,5.66437 -1.19814,1.78198 -2.43436,3.53817 -3.65168,5.30718 -1.17118,1.7674 -2.32387,3.54698 -3.48693,5.31975 -1.20843,1.8443 -2.52462,3.6159 -3.82608,5.39525 -3.3527,4.13221 -7.1866,7.96787 -11.36828,11.272 -0.25874,0.20587 -1.51286,1.19734 -1.76173,1.42062 -0.25944,0.23276 -0.98972,0.98198 -0.74273,0.73604 11.14111,-11.09399 7.12992,-7.30383 4.88703,-4.75237 -1.27366,1.68208 -2.64213,3.28686 -3.98548,4.91286 -1.81974,2.26448 -3.69399,4.48635 -5.59694,6.68143 -1.24739,1.29774 -2.47213,2.61651 -3.70313,3.92975 -1.04913,1.23054 -2.05743,2.4974 -3.08398,3.74809 -0.9707,1.36316 -2.10943,2.58716 -3.21526,3.83854 -3.00805,3.56073 -6.36776,6.68667 -9.6884,10.00947 -1.28901,1.33743 -2.72072,2.52228 -4.04349,3.82012 -1.6181,1.5129 -3.20393,3.06448 -4.87189,4.52383 0.46954,-0.4617 -1.41638,1.2869 -1.07816,0.94825 13.78696,-13.80433 3.16024,-2.787 -1.59447,1.59285 -1.2969,1.26732 -2.75214,2.35218 -4.12309,3.5381 -1.35283,1.21022 -2.73628,2.36098 -3.99996,3.66601 5.04488,-5.04136 13.01164,-12.9677 -0.86429,0.74614 -0.47099,0.46549 -0.88955,0.80566 -1.52535,1.01983 -1.23507,0.58561 -2.53381,0.97403 -3.73648,1.63808 -1.64259,0.84955 -3.05934,2.05759 -4.49226,3.21449 -1.17152,0.96592 -2.41652,1.84973 -3.74726,2.58474 -1.37422,0.68056 -2.77134,1.30327 -4.19666,1.87034 -0.638138,0.30949 -0.867518,0.64805 -1.576318,0.8394 -0.31463,0.0617 -0.2194,0.28656 -0.44358,0.54112 2.233908,-2.23481 4.464568,-4.47288 6.701738,-6.70443 0.0678,-0.0676 -0.12588,0.14437 -0.19329,0.21231 -2.37748,2.39616 -4.76078,4.78653 -7.141158,7.1798 14.329478,-15.38562 3.237378,-1.4886 -1.41733,1.00865 -0.50969,-0.24401 -0.76702,-0.64192 -0.92952,-1.1589 0,0 7.451698,-6.56977 7.451698,-6.56977 l 0,0 c -0.0729,0.45526 -0.30584,-0.0582 -0.48007,-0.18497 0.17914,-0.12498 0.35925,-0.2502 0.52623,-0.39142 0.0838,-0.0708 0.32195,-0.29795 0.24466,-0.2201 -0.16215,0.16329 -18.448648,18.50667 0.48693,-0.48939 -17.746578,17.96962 0.68246,-0.84178 0.87715,-0.92446 0.0929,-0.0395 0.20146,-0.0141 0.30219,-0.0211 0.0584,-0.0273 0.11673,-0.0546 0.1751,-0.082 0.50702,-0.29815 0.95042,-0.69018 1.55987,-0.80505 1.38504,-0.54842 2.73903,-1.17387 4.03286,-1.91461 1.27272,-0.81252 2.48384,-1.71912 3.65211,-2.67551 1.47128,-1.13841 2.94766,-2.2846 4.64027,-3.08314 1.25341,-0.58133 2.57104,-1.01949 3.77656,-1.70263 0.33833,-0.25942 0.64169,-0.53213 0.95951,-0.8151 0.12395,-0.11034 0.4995,-0.43623 0.38293,-0.31813 -0.257,0.26037 -18.45489,18.49649 0.77486,-0.77727 1.29211,-1.24647 2.69478,-2.36999 4.02626,-3.57365 1.39874,-1.1825 2.8314,-2.32627 4.13157,-3.61993 0.28686,-0.26996 1.12964,-1.09837 0.85199,-0.81894 -2.17575,2.18968 -8.72989,8.73175 -6.53153,6.56477 2.82415,-2.78383 5.37036,-5.69418 8.34902,-8.24328 1.63254,-1.47229 3.22956,-2.98603 4.818,-4.50542 1.3808,-1.26874 2.74064,-2.55853 4.06484,-3.88663 -11.92571,11.94924 -6.50285,6.76239 -4.0458,3.80201 1.1154,-1.2417 2.27305,-2.44454 3.2629,-3.78845 0.9539,-1.30965 2.11081,-2.46144 3.01073,-3.81557 1.26235,-1.3236 2.46595,-2.70596 3.80203,-3.95654 1.92623,-2.17306 3.81338,-4.38729 5.61701,-6.66114 1.32919,-1.60658 2.68731,-3.19046 3.93259,-4.86373 3.1865,-4.23096 7.23058,-7.80797 11.34442,-11.13461 0.92748,-0.80033 0.75171,-0.63434 1.63264,-1.44962 0.26082,-0.24139 1.02763,-0.98184 0.7783,-0.72862 -11.02162,11.19358 -6.95714,7.21868 -4.73631,4.66126 1.34223,-1.75442 2.62111,-3.55911 3.89421,-5.36339 1.13452,-1.77673 2.30127,-3.53277 3.44642,-5.30231 1.16169,-1.81937 2.48171,-3.53582 3.689,-5.32526 1.17079,-1.81268 2.44536,-3.57655 3.33728,-5.5508 1.01428,-2.08001 1.97668,-4.17372 2.91824,-6.28885 1.14578,-2.16709 2.29244,-4.33813 3.75875,-6.30928 1.34103,-1.85323 2.66002,-3.72267 3.82368,-5.69418 1.19244,-2.11121 2.37864,-4.22364 3.61274,-6.31151 1.11756,-1.85122 2.22074,-3.70441 3.39354,-5.522 1.28839,-1.94308 2.71394,-3.79509 3.95212,-5.77346 1.18033,-1.73306 2.13654,-3.59584 3.28151,-5.34973 1.3584,-1.85004 2.80737,-3.63561 4.02134,-5.58754 1.44568,-2.19601 2.64818,-4.52913 3.77258,-6.90401 1.43849,-2.77662 3.03308,-5.47295 4.55744,-8.20282 1.74855,-2.87952 3.65546,-5.65447 5.44243,-8.50966 1.6401,-2.50996 3.17896,-5.08625 4.85551,-7.57281 1.41689,-2.13865 2.90464,-4.22922 4.30588,-6.37857 1.48194,-2.42171 2.80612,-4.92975 4.12846,-7.44113 1.13815,-2.10644 2.17239,-4.2616 3.29311,-6.3766 1.32858,-2.10338 2.79007,-4.12222 4.00225,-6.29725 1.59568,-2.80679 2.94798,-5.73325 4.21426,-8.70204 1.32423,-2.81851 2.58943,-5.66304 3.79026,-8.53651 1.43002,-3.176 3.26153,-6.14575 4.85122,-9.24233 1.67465,-2.9514 3.25267,-5.95246 4.87968,-8.93028 1.14708,-2.08942 2.37034,-4.12714 3.70283,-6.10383 1.31126,-2.1542 2.88069,-4.13854 4.30848,-6.21547 1.47579,-2.04832 3.0632,-4.02188 4.83632,-5.82221 1.50993,-1.83666 3.2259,-3.50062 4.63682,-5.42251 1.79377,-2.33352 3.5926,-4.66294 5.41333,-6.97498 1.90256,-2.39175 3.9362,-4.69078 5.63832,-7.23421 1.87115,-2.61513 3.56984,-5.34067 5.50651,-7.90949 1.66164,-2.31383 3.50204,-4.49368 5.341,-6.66725 3.78449,-4.45328 7.59425,-8.88975 12.14114,-12.63063 1.78085,-1.47211 3.52451,-2.98388 5.20037,-4.57577 2.63113,-2.50043 3.21146,-3.06817 -5.06745,5.15251 -0.27608,0.27415 0.52459,-0.57474 0.78572,-0.86317 0.49083,-0.54213 1.02116,-1.04777 1.50873,-1.59284 0.22657,-0.25329 0.42315,-0.5319 0.63473,-0.79785 3.30349,-4.33383 7.23292,-8.16573 11.38289,-11.68806 3.00082,-2.59024 10.48799,-9.99806 -1.62686,2.06432 3.80758,-4.27869 8.01249,-8.17017 12.19792,-12.06889 1.77217,-1.65825 3.57554,-3.28481 5.39198,-4.89431 0.36245,-0.33502 1.18131,-1.08947 1.53918,-1.43009 0.24986,-0.23782 0.98516,-0.96597 0.7427,-0.72062 -2.04013,2.06441 -4.07366,4.13554 -6.13584,6.17792 -0.22173,0.2196 0.40851,-0.4719 0.61276,-0.70785 2.49449,-2.52345 4.98899,-5.0469 7.48348,-7.57036 1.52176,-1.3887 3.18352,-2.60205 4.92322,-3.70499 1.52597,-1.08217 2.92903,-2.31756 4.36102,-3.51921 1.54623,-1.1522 3.10459,-2.29009 4.61764,-3.48513 2.97948,-2.61598 1.07227,-0.97428 -5.2826,5.42588 -0.22867,0.2303 0.45632,-0.46161 0.68568,-0.69121 2.95009,-2.95319 5.87955,-5.93274 8.86871,-8.84857 1.35162,-1.27651 2.80536,-2.41886 4.22294,-3.61884 1.35058,-1.27518 2.66284,-2.59357 4.18509,-3.67087 1.69852,-1.36527 3.44049,-2.67873 5.21398,-3.94476 1.47319,-0.99729 2.90864,-2.04572 4.37215,-3.0556 1.20607,-0.74411 2.40036,-1.51319 3.71667,-2.05477 1.46824,-0.70406 2.85206,-1.56549 4.27613,-2.3529 1.85415,-0.99645 3.78898,-1.82792 5.79704,-2.46502 0,0 -6.20544,7.68899 -6.20544,7.68899 z"
       inkscape:connector-curvature="0" />
    <text
       sodipodi:linespacing="125%"
       id="text3027"
       y="640.11847"
       x="397.26596"
       style="font-size:40px;font-style:normal;font-weight:normal;line-height:125%;letter-spacing:0px;word-spacing:0px;fill:#000000;fill-opacity:1;stroke:none;font-family:Sans"
       xml:space="preserve"><tspan
         y="640.11847"
         x="397.26596"
         id="tspan3029"
         sodipodi:role="line">L</tspan></text>
    <text
       sodipodi:linespacing="125%"
       id="text3031"
       y="-547.87219"
       x="454.29276"
       style="font-size:19.39975739px;font-style:normal;font-variant:normal;font-weight:normal;font-stretch:normal;text-align:start;line-height:125%;letter-spacing:0px;word-spacing:0px;writing-mode:lr-tb;text-anchor:start;fill:#000000;fill-opacity:1;stroke:none;font-family:Sans;-inkscape-font-specification:Sans"
       xml:space="preserve"
       transform="scale(0.90605392,-1.1036871)"><tspan
         y="-547.87219"
         x="454.29276"
         id="tspan3033"
         sodipodi:role="line">Λ</tspan></text>
    <text
       xml:space="preserve"
       style="font-size:33.50197601px;font-style:normal;font-weight:normal;line-height:125%;letter-spacing:0px;word-spacing:0px;fill:#000000;fill-opacity:1;stroke:none;font-family:Sans"
       x="215.05919"
       y="685.04559"
       id="text3039"
       sodipodi:linespacing="125%"
       transform="scale(1.0042399,0.995778)"><tspan
         sodipodi:role="line"
         id="tspan3041"
         x="215.05919"
         y="685.04559">p(gL)</tspan></text>
    <path
       inkscape:connector-curvature="0"
       d="m 290.07683,706.29576 c -0.0288,0.17494 -0.0623,0.34904 -0.0863,0.5248 -0.0173,0.12574 -0.13032,1.1318 -0.12989,1.26677 5.8e-4,0.19348 0.0813,0.78001 0.061,0.58501 -0.65196,-6.26513 -0.97116,-8.17589 -0.57002,-5.71201 0.0726,0.50688 0.47369,0.68826 1.12585,0.54697 0.61218,-0.17471 1.06133,-0.51804 1.5165,-0.83111 0.52822,-0.29679 0.42073,-0.77414 0.35714,-1.23451 1.04765,12.23093 2.21775,7.42826 -0.11794,5.34246 -0.38186,-0.39956 -1.01799,-0.55187 -1.58577,-0.78327 -0.484,-0.22494 -0.91052,-0.44345 -1.44018,-0.58788 -0.62779,-0.0874 -1.22372,-0.0448 -1.85294,-0.11635 -0.62789,-0.0266 -0.34563,0.11935 -0.47458,0.47071 -0.22366,0.25624 -0.48093,0.48157 -0.77303,0.69658 -0.33375,0.22848 -0.66657,0.45772 -0.99424,0.69045 -0.0383,0.0273 -0.14341,0.0434 -0.11507,0.0816 0.044,0.0587 0.18719,0.0469 0.24932,0.0983 0.0618,0.0499 0.0961,0.24311 0.09,0.18162 -1.04654,-10.79325 -1.01072,-8.39559 -0.6394,-6.10284 0.22169,0.47578 0.74432,0.84739 1.23725,1.21573 0.68741,0.48356 1.65336,0.49267 2.50961,0.58509 0.49498,0.0492 0.55297,0.12645 0.79771,-0.0685 0.19869,-0.19676 0.45472,-0.35886 0.69013,-0.53306 0.33843,-0.25426 -0.0565,-0.1411 1.05535,-0.0223 0,0 -0.19021,6.7044 -0.19021,6.7044 l 0,0 c 1.05739,-2e-4 0.93972,-0.10963 0.64628,0.10114 -0.27845,0.19492 -0.53284,0.41927 -0.89915,0.54143 -0.4697,0.13348 -0.93341,0.11522 -1.46307,0.0157 -1.07679,-0.1414 -2.22141,-0.17938 -3.19438,-0.64881 -0.57182,-0.39536 -1.17716,-0.7831 -1.63552,-1.24374 -2.19582,-2.10235 -0.8713,-4.8714 -1.11967,-7.29935 -0.007,-0.0732 0.0115,-0.15187 0.0732,-0.20451 0.10255,-0.0873 0.33073,-0.0747 0.40882,-0.18578 0.32221,-0.22042 0.64283,-0.44399 0.92364,-0.69121 0.2215,-0.20898 0.40032,-0.44845 0.5445,-0.692 0.37289,-0.39442 0.92128,-0.49648 1.64603,-0.44017 0.68981,0.10142 1.35811,0.0181 2.05195,0.12616 0.60279,0.1637 1.14535,0.27867 1.63713,0.60948 0.64352,0.29175 1.38728,0.4659 1.95534,0.81787 3.17293,2.54449 2.11341,3.20064 2.13703,8.0943 -0.0995,0.53027 -0.4853,0.92097 -1.04944,1.24334 -0.58013,0.35963 -1.18016,0.71103 -1.99217,0.82627 -0.98524,0.098 -2.15178,-0.002 -2.77007,-0.72346 -1.43379,-3.22363 -1.34607,-6.8335 -0.55337,-9.97982 0,0 1.93238,6.73462 1.93238,6.73462 z"
       id="path3062"
       style="fill:#000080;stroke:none" />
    <path
       style="fill:#000080;stroke:none"
       id="path3064"
       d="m 270.10655,734.82473 c -0.0288,0.17494 -0.0623,0.34904 -0.0863,0.5248 -0.0173,0.12574 -0.13032,1.1318 -0.12989,1.26677 5.8e-4,0.19348 0.0813,0.78001 0.061,0.58501 -0.65196,-6.26513 -0.97116,-8.17589 -0.57002,-5.71201 0.0726,0.50688 0.47369,0.68826 1.12585,0.54697 0.61218,-0.17471 1.06133,-0.51804 1.5165,-0.83111 0.52822,-0.29679 0.42073,-0.77414 0.35714,-1.23451 1.04765,12.23093 2.21775,7.42826 -0.11794,5.34246 -0.38186,-0.39956 -1.01799,-0.55187 -1.58577,-0.78327 -0.484,-0.22494 -0.91052,-0.44345 -1.44018,-0.58788 -0.62779,-0.0874 -1.22372,-0.0448 -1.85294,-0.11635 -0.62789,-0.0266 -0.34563,0.11935 -0.47458,0.47071 -0.22366,0.25624 -0.48093,0.48157 -0.77303,0.69658 -0.33375,0.22848 -0.66657,0.45772 -0.99424,0.69045 -0.0383,0.0273 -0.14341,0.0434 -0.11507,0.0816 0.044,0.0587 0.18719,0.0469 0.24932,0.0983 0.0618,0.0499 0.0961,0.24311 0.09,0.18162 -1.04654,-10.79325 -1.01072,-8.39559 -0.6394,-6.10284 0.22169,0.47578 0.74432,0.84739 1.23725,1.21573 0.68741,0.48356 1.65336,0.49267 2.50961,0.58509 0.49498,0.0492 0.55297,0.12645 0.79771,-0.0685 0.19869,-0.19676 0.45472,-0.35886 0.69013,-0.53306 0.33843,-0.25426 -0.0565,-0.1411 1.05535,-0.0223 0,0 -0.19021,6.7044 -0.19021,6.7044 l 0,0 c 1.05739,-2e-4 0.93972,-0.10963 0.64628,0.10114 -0.27845,0.19492 -0.53284,0.41927 -0.89915,0.54143 -0.4697,0.13348 -0.93341,0.11522 -1.46307,0.0157 -1.07679,-0.1414 -2.22141,-0.17938 -3.19438,-0.64881 -0.57182,-0.39536 -1.17716,-0.7831 -1.63552,-1.24374 -2.19582,-2.10235 -0.8713,-4.8714 -1.11967,-7.29935 -0.007,-0.0732 0.0115,-0.15187 0.0732,-0.20451 0.10255,-0.0873 0.33073,-0.0747 0.40882,-0.18578 0.32221,-0.22042 0.64283,-0.44399 0.92364,-0.69121 0.2215,-0.20898 0.40032,-0.44845 0.5445,-0.692 0.37289,-0.39442 0.92128,-0.49648 1.64603,-0.44017 0.68981,0.10142 1.35811,0.0181 2.05195,0.12616 0.60279,0.1637 1.14535,0.27867 1.63713,0.60948 0.64352,0.29175 1.38728,0.4659 1.95534,0.81787 3.17293,2.54449 2.11341,3.20064 2.13703,8.0943 -0.0995,0.53027 -0.4853,0.92097 -1.04944,1.24334 -0.58013,0.35963 -1.18016,0.71103 -1.99217,0.82627 -0.98524,0.098 -2.15178,-0.002 -2.77007,-0.72346 -1.43379,-3.22363 -1.34607,-6.8335 -0.55337,-9.97982 0,0 1.93238,6.73462 1.93238,6.73462 z"
       inkscape:connector-curvature="0" />
    <path
       inkscape:connector-curvature="0"
       d="m 254.41561,762.64048 c -0.0288,0.17494 -0.0623,0.34904 -0.0863,0.5248 -0.0173,0.12574 -0.13032,1.1318 -0.12989,1.26677 5.8e-4,0.19348 0.0813,0.78001 0.061,0.58501 -0.65196,-6.26513 -0.97116,-8.17589 -0.57002,-5.71201 0.0726,0.50688 0.47369,0.68826 1.12585,0.54697 0.61218,-0.17471 1.06133,-0.51804 1.5165,-0.83111 0.52822,-0.29679 0.42073,-0.77414 0.35714,-1.23451 1.04765,12.23093 2.21775,7.42826 -0.11794,5.34246 -0.38186,-0.39956 -1.01799,-0.55187 -1.58577,-0.78327 -0.484,-0.22494 -0.91052,-0.44345 -1.44018,-0.58788 -0.62779,-0.0874 -1.22372,-0.0448 -1.85294,-0.11635 -0.62789,-0.0266 -0.34563,0.11935 -0.47458,0.47071 -0.22366,0.25624 -0.48093,0.48157 -0.77303,0.69658 -0.33375,0.22848 -0.66657,0.45772 -0.99424,0.69045 -0.0383,0.0273 -0.14341,0.0434 -0.11507,0.0816 0.044,0.0587 0.18719,0.0469 0.24932,0.0983 0.0618,0.0499 0.0961,0.24311 0.09,0.18162 -1.04654,-10.79325 -1.01072,-8.39559 -0.6394,-6.10284 0.22169,0.47578 0.74432,0.84739 1.23725,1.21573 0.68741,0.48356 1.65336,0.49267 2.50961,0.58509 0.49498,0.0492 0.55297,0.12645 0.79771,-0.0685 0.19869,-0.19676 0.45472,-0.35886 0.69013,-0.53306 0.33843,-0.25426 -0.0565,-0.1411 1.05535,-0.0223 0,0 -0.19021,6.7044 -0.19021,6.7044 l 0,0 c 1.05739,-2e-4 0.93972,-0.10963 0.64628,0.10114 -0.27845,0.19492 -0.53284,0.41927 -0.89915,0.54143 -0.4697,0.13348 -0.93341,0.11522 -1.46307,0.0157 -1.07679,-0.1414 -2.22141,-0.17938 -3.19438,-0.64881 -0.57182,-0.39536 -1.17716,-0.7831 -1.63552,-1.24374 -2.19582,-2.10235 -0.8713,-4.8714 -1.11967,-7.29935 -0.007,-0.0732 0.0115,-0.15187 0.0732,-0.20451 0.10255,-0.0873 0.33073,-0.0747 0.40882,-0.18578 0.32221,-0.22042 0.64283,-0.44399 0.92364,-0.69121 0.2215,-0.20898 0.40032,-0.44845 0.5445,-0.692 0.37289,-0.39442 0.92128,-0.49648 1.64603,-0.44017 0.68981,0.10142 1.35811,0.0181 2.05195,0.12616 0.60279,0.1637 1.14535,0.27867 1.63713,0.60948 0.64352,0.29175 1.38728,0.4659 1.95534,0.81787 3.17293,2.54449 2.11341,3.20064 2.13703,8.0943 -0.0995,0.53027 -0.4853,0.92097 -1.04944,1.24334 -0.58013,0.35963 -1.18016,0.71103 -1.99217,0.82627 -0.98524,0.098 -2.15178,-0.002 -2.77007,-0.72346 -1.43379,-3.22363 -1.34607,-6.8335 -0.55337,-9.97982 0,0 1.93238,6.73462 1.93238,6.73462 z"
       id="path3066"
       style="fill:#000080;stroke:none" />
    <path
       style="fill:#000080;stroke:none"
       id="path3068"
       d="m 234.44533,799.01492 c -0.0288,0.17494 -0.0623,0.34904 -0.0863,0.5248 -0.0173,0.12574 -0.13032,1.1318 -0.12989,1.26677 5.8e-4,0.19348 0.0813,0.78001 0.061,0.58501 -0.65196,-6.26513 -0.97116,-8.17589 -0.57002,-5.71201 0.0726,0.50688 0.47369,0.68826 1.12585,0.54697 0.61218,-0.17471 1.06133,-0.51804 1.5165,-0.83111 0.52822,-0.29679 0.42073,-0.77414 0.35714,-1.23451 1.04765,12.23093 2.21775,7.42826 -0.11794,5.34246 -0.38186,-0.39956 -1.01799,-0.55187 -1.58577,-0.78327 -0.484,-0.22494 -0.91052,-0.44345 -1.44018,-0.58788 -0.62779,-0.0874 -1.22372,-0.0448 -1.85294,-0.11635 -0.62789,-0.0266 -0.34563,0.11935 -0.47458,0.47071 -0.22366,0.25624 -0.48093,0.48157 -0.77303,0.69658 -0.33375,0.22848 -0.66657,0.45772 -0.99424,0.69045 -0.0383,0.0273 -0.14341,0.0434 -0.11507,0.0816 0.044,0.0587 0.18719,0.0469 0.24932,0.0983 0.0618,0.0499 0.0961,0.24311 0.09,0.18162 -1.04654,-10.79325 -1.01072,-8.39559 -0.6394,-6.10284 0.22169,0.47578 0.74432,0.84739 1.23725,1.21573 0.68741,0.48356 1.65336,0.49267 2.50961,0.58509 0.49498,0.0492 0.55297,0.12645 0.79771,-0.0685 0.19869,-0.19676 0.45472,-0.35886 0.69013,-0.53306 0.33843,-0.25426 -0.0565,-0.1411 1.05535,-0.0223 0,0 -0.19021,6.7044 -0.19021,6.7044 l 0,0 c 1.05739,-2e-4 0.93972,-0.10963 0.64628,0.10114 -0.27845,0.19492 -0.53284,0.41927 -0.89915,0.54143 -0.4697,0.13348 -0.93341,0.11522 -1.46307,0.0157 -1.07679,-0.1414 -2.22141,-0.17938 -3.19438,-0.64881 -0.57182,-0.39536 -1.17716,-0.7831 -1.63552,-1.24374 -2.19582,-2.10235 -0.8713,-4.8714 -1.11967,-7.29935 -0.007,-0.0732 0.0115,-0.15187 0.0732,-0.20451 0.10255,-0.0873 0.33073,-0.0747 0.40882,-0.18578 0.32221,-0.22042 0.64283,-0.44399 0.92364,-0.69121 0.2215,-0.20898 0.40032,-0.44845 0.5445,-0.692 0.37289,-0.39442 0.92128,-0.49648 1.64603,-0.44017 0.68981,0.10142 1.35811,0.0181 2.05195,0.12616 0.60279,0.1637 1.14535,0.27867 1.63713,0.60948 0.64352,0.29175 1.38728,0.4659 1.95534,0.81787 3.17293,2.54449 2.11341,3.20064 2.13703,8.0943 -0.0995,0.53027 -0.4853,0.92097 -1.04944,1.24334 -0.58013,0.35963 -1.18016,0.71103 -1.99217,0.82627 -0.98524,0.098 -2.15178,-0.002 -2.77007,-0.72346 -1.43379,-3.22363 -1.34607,-6.8335 -0.55337,-9.97982 0,0 1.93238,6.73462 1.93238,6.73462 z"
       inkscape:connector-curvature="0" />
    <path
       inkscape:connector-curvature="0"
       d="m 211.62215,836.81581 c -0.0288,0.17494 -0.0623,0.34904 -0.0863,0.5248 -0.0173,0.12574 -0.13032,1.1318 -0.12989,1.26677 5.8e-4,0.19348 0.0813,0.78001 0.061,0.58501 -0.65196,-6.26513 -0.97116,-8.17589 -0.57002,-5.71201 0.0726,0.50688 0.47369,0.68826 1.12585,0.54697 0.61218,-0.17471 1.06133,-0.51804 1.5165,-0.83111 0.52822,-0.29679 0.42073,-0.77414 0.35714,-1.23451 1.04765,12.23093 2.21775,7.42826 -0.11794,5.34246 -0.38186,-0.39956 -1.01799,-0.55187 -1.58577,-0.78327 -0.484,-0.22494 -0.91052,-0.44345 -1.44018,-0.58788 -0.62779,-0.0874 -1.22372,-0.0448 -1.85294,-0.11635 -0.62789,-0.0266 -0.34563,0.11935 -0.47458,0.47071 -0.22366,0.25624 -0.48093,0.48157 -0.77303,0.69658 -0.33375,0.22848 -0.66657,0.45772 -0.99424,0.69045 -0.0383,0.0273 -0.14341,0.0434 -0.11507,0.0816 0.044,0.0587 0.18719,0.0469 0.24932,0.0983 0.0618,0.0499 0.0961,0.24311 0.09,0.18162 -1.04654,-10.79325 -1.01072,-8.39559 -0.6394,-6.10284 0.22169,0.47578 0.74432,0.84739 1.23725,1.21573 0.68741,0.48356 1.65336,0.49267 2.50961,0.58509 0.49498,0.0492 0.55297,0.12645 0.79771,-0.0685 0.19869,-0.19676 0.45472,-0.35886 0.69013,-0.53306 0.33843,-0.25426 -0.0565,-0.1411 1.05535,-0.0223 0,0 -0.19021,6.7044 -0.19021,6.7044 l 0,0 c 1.05739,-2e-4 0.93972,-0.10963 0.64628,0.10114 -0.27845,0.19492 -0.53284,0.41927 -0.89915,0.54143 -0.4697,0.13348 -0.93341,0.11522 -1.46307,0.0157 -1.07679,-0.1414 -2.22141,-0.17938 -3.19438,-0.64881 -0.57182,-0.39536 -1.17716,-0.7831 -1.63552,-1.24374 -2.19582,-2.10235 -0.8713,-4.8714 -1.11967,-7.29935 -0.007,-0.0732 0.0115,-0.15187 0.0732,-0.20451 0.10255,-0.0873 0.33073,-0.0747 0.40882,-0.18578 0.32221,-0.22042 0.64283,-0.44399 0.92364,-0.69121 0.2215,-0.20898 0.40032,-0.44845 0.5445,-0.692 0.37289,-0.39442 0.92128,-0.49648 1.64603,-0.44017 0.68981,0.10142 1.35811,0.0181 2.05195,0.12616 0.60279,0.1637 1.14535,0.27867 1.63713,0.60948 0.64352,0.29175 1.38728,0.4659 1.95534,0.81787 3.17293,2.54449 2.11341,3.20064 2.13703,8.0943 -0.0995,0.53027 -0.4853,0.92097 -1.04944,1.24334 -0.58013,0.35963 -1.18016,0.71103 -1.99217,0.82627 -0.98524,0.098 -2.15178,-0.002 -2.77007,-0.72346 -1.43379,-3.22363 -1.34607,-6.8335 -0.55337,-9.97982 0,0 1.93238,6.73462 1.93238,6.73462 z"
       id="path3070"
       style="fill:#000080;stroke:none" />
    <path
       style="fill:#000080;stroke:none"
       id="path3072"
       d="m 211.62215,836.81581 c -0.0288,0.17494 -0.0623,0.34904 -0.0863,0.5248 -0.0173,0.12574 -0.13032,1.1318 -0.12989,1.26677 5.8e-4,0.19348 0.0813,0.78001 0.061,0.58501 -0.65196,-6.26513 -0.97116,-8.17589 -0.57002,-5.71201 0.0726,0.50688 0.47369,0.68826 1.12585,0.54697 0.61218,-0.17471 1.06133,-0.51804 1.5165,-0.83111 0.52822,-0.29679 0.42073,-0.77414 0.35714,-1.23451 1.04765,12.23093 2.21775,7.42826 -0.11794,5.34246 -0.38186,-0.39956 -1.01799,-0.55187 -1.58577,-0.78327 -0.484,-0.22494 -0.91052,-0.44345 -1.44018,-0.58788 -0.62779,-0.0874 -1.22372,-0.0448 -1.85294,-0.11635 -0.62789,-0.0266 -0.34563,0.11935 -0.47458,0.47071 -0.22366,0.25624 -0.48093,0.48157 -0.77303,0.69658 -0.33375,0.22848 -0.66657,0.45772 -0.99424,0.69045 -0.0383,0.0273 -0.14341,0.0434 -0.11507,0.0816 0.044,0.0587 0.18719,0.0469 0.24932,0.0983 0.0618,0.0499 0.0961,0.24311 0.09,0.18162 -1.04654,-10.79325 -1.01072,-8.39559 -0.6394,-6.10284 0.22169,0.47578 0.74432,0.84739 1.23725,1.21573 0.68741,0.48356 1.65336,0.49267 2.50961,0.58509 0.49498,0.0492 0.55297,0.12645 0.79771,-0.0685 0.19869,-0.19676 0.45472,-0.35886 0.69013,-0.53306 0.33843,-0.25426 -0.0565,-0.1411 1.05535,-0.0223 0,0 -0.19021,6.7044 -0.19021,6.7044 l 0,0 c 1.05739,-2e-4 0.93972,-0.10963 0.64628,0.10114 -0.27845,0.19492 -0.53284,0.41927 -0.89915,0.54143 -0.4697,0.13348 -0.93341,0.11522 -1.46307,0.0157 -1.07679,-0.1414 -2.22141,-0.17938 -3.19438,-0.64881 -0.57182,-0.39536 -1.17716,-0.7831 -1.63552,-1.24374 -2.19582,-2.10235 -0.8713,-4.8714 -1.11967,-7.29935 -0.007,-0.0732 0.0115,-0.15187 0.0732,-0.20451 0.10255,-0.0873 0.33073,-0.0747 0.40882,-0.18578 0.32221,-0.22042 0.64283,-0.44399 0.92364,-0.69121 0.2215,-0.20898 0.40032,-0.44845 0.5445,-0.692 0.37289,-0.39442 0.92128,-0.49648 1.64603,-0.44017 0.68981,0.10142 1.35811,0.0181 2.05195,0.12616 0.60279,0.1637 1.14535,0.27867 1.63713,0.60948 0.64352,0.29175 1.38728,0.4659 1.95534,0.81787 3.17293,2.54449 2.11341,3.20064 2.13703,8.0943 -0.0995,0.53027 -0.4853,0.92097 -1.04944,1.24334 -0.58013,0.35963 -1.18016,0.71103 -1.99217,0.82627 -0.98524,0.098 -2.15178,-0.002 -2.77007,-0.72346 -1.43379,-3.22363 -1.34607,-6.8335 -0.55337,-9.97982 0,0 1.93238,6.73462 1.93238,6.73462 z"
       inkscape:connector-curvature="0" />
  </g>
</svg>
